<?xml version="1.0" standalone="no"?><!DOCTYPE svg PUBLIC "-//W3C//DTD SVG 1.1//EN" "http://www.w3.org/Graphics/SVG/1.1/DTD/svg11.dtd"><svg t="1770539594603" class="icon" viewBox="0 0 1024 1024" version="1.1" xmlns="http://www.w3.org/2000/svg" p-id="1240" xmlns:xlink="http://www.w3.org/1999/xlink" width="200" height="200"><path d="M897.281857 315.575048a201.768426 201.768426 0 0 1-81.442909 165.568373 86.505148 86.505148 0 0 0-36.11352 69.51564v70.712694H729.348222V550.659061a86.505148 86.505148 0 0 1 36.099097-69.51564 201.566513 201.566513 0 0 0-95.043168-361.899579c11.249419-1.528767 22.585372-2.019126 33.921325-1.514345 106.105097 5.451642 190.144026 91.625076 192.956381 197.816707z" fill="#164476" p-id="1241"></path><path d="M393.480953 738.928184h16.802017a50.377206 50.377206 0 0 1 50.377206 50.377206v167.933635c0 9.27356-7.528457 16.787595-16.802017 16.787594H40.826089a16.845284 16.845284 0 0 1-16.787595-16.787594V789.30539a50.319517 50.319517 0 0 1 50.377206-50.377206h319.065253z" fill="#071533" p-id="1242"></path><path d="M191.972129 604.584161h100.754412v167.933635H191.972129z" fill="#071533" p-id="1243"></path><path d="M393.480953 453.452543a67.179223 67.179223 0 0 1 0 134.329601H91.203295a67.179223 67.179223 0 0 1 0-134.344023h302.29208z" fill="#164476" p-id="1244"></path><path d="M124.792906 403.060915h235.098435a33.589611 33.589611 0 0 1 33.604034 33.589611v167.933635a33.589611 33.589611 0 0 1-33.604034 33.589611H124.792906a33.589611 33.589611 0 0 1-33.589611-33.604034V436.664948a33.589611 33.589611 0 0 1 33.589611-33.589611z" fill="#1B487F" p-id="1245"></path><path d="M124.778484 403.060915h184.750074a33.589611 33.589611 0 0 1 33.575189 33.589611v167.933635a33.589611 33.589611 0 0 1-33.589612 33.589611H124.792906a33.589611 33.589611 0 0 1-33.589611-33.604034V436.664948a33.589611 33.589611 0 0 1 33.589611-33.589611z" fill="#071533" p-id="1246"></path><path d="M242.349335 285.504486m-33.589612 0a33.589611 33.589611 0 1 0 67.179223 0 33.589611 33.589611 0 1 0-67.179223 0Z" fill="#E7EBF4" p-id="1247"></path><path d="M91.203295 738.928184h302.277658V990.828636H91.188872z" fill="#164476" p-id="1248"></path><path d="M91.203295 738.928184h251.900452V990.828636H91.203295zM813.31504 688.536556a33.690568 33.690568 0 0 1-33.589612 33.604034H762.952256a67.1648 67.1648 0 0 1-67.179223 67.1648 63.112125 63.112125 0 0 1-25.181392-5.047816 66.804242 66.804242 0 0 1-41.983408-62.116984h-16.802017a33.604034 33.604034 0 0 1-1.009564-67.179223 33.604034 33.604034 0 0 1 1.009564-67.179223h167.933634a33.589611 33.589611 0 1 1 0 67.179223 33.676145 33.676145 0 0 1 33.589612 33.589611z" fill="#071533" p-id="1249"></path><path d="M158.368095 806.107407h167.948057V990.828636H158.368095z" fill="#071533" p-id="1250"></path><path d="M191.972129 638.173772h50.377206v100.754412H191.972129z" fill="#071533" p-id="1251"></path><path d="M242.349335 319.094097a33.358854 33.358854 0 0 0 25.181392-11.581132 33.02714 33.02714 0 0 1 0-44.002536 33.531922 33.531922 0 1 0-25.181392 55.583668z" fill="#164476" p-id="1252"></path><path d="M40.826089 974.026619h50.377206a16.845284 16.845284 0 0 1-16.787595-16.787594V789.30539a50.319517 50.319517 0 0 1 50.377206-50.377206H74.4157a50.319517 50.319517 0 0 0-50.377206 50.377206v167.933635a16.845284 16.845284 0 0 0 16.787595 16.787594z" fill="#071533" p-id="1253"></path><path d="M91.203295 974.026619h50.377206v16.787595H91.203295z" fill="#FFFFFF" p-id="1254"></path><path d="M91.203295 587.782144v16.802017a33.690568 33.690568 0 0 0 33.589611 33.589611h50.377206a33.690568 33.690568 0 0 1-33.589611-33.604034v-16.787594a67.179223 67.179223 0 0 1 0-134.344023v-16.787595a33.690568 33.690568 0 0 1 33.604033-33.589611H124.778484a33.690568 33.690568 0 0 0-33.589612 33.589611v16.787595a67.179223 67.179223 0 0 0 0 134.344023z" fill="#164476" p-id="1255"></path><path d="M91.203295 990.828636H43.450953l-4.182476-0.057689a33.575189 33.575189 0 0 1-31.844509-30.113829L7.222055 957.224602V800.396163c0.100956-5.552598-0.216335-9.086069 0.274024-16.672215a66.962888 66.962888 0 0 1 48.776327-59.05945 70.337714 70.337714 0 0 1 19.628794-2.523908h15.287672v33.575189h-15.287672a35.969296 35.969296 0 0 0-10.571569 1.29801 33.387699 33.387699 0 0 0-24.373741 29.479246c-0.259602 2.59602-0.100956 9.259137-0.144224 13.903128V957.224602l-0.043267 0.086534 50.420473-0.086534V990.828636z" fill="#071533" p-id="1256"></path><path d="M341.57498 570.994549a16.787595 16.787595 0 0 0-16.787595-16.802017H159.896862a16.787595 16.787595 0 0 0 0 33.604034H324.801807a16.787595 16.787595 0 0 0 16.787595-16.802017z" fill="#35A2FF" p-id="1257"></path><path d="M91.203295 722.14059h-15.287672a70.481937 70.481937 0 0 0-19.628794 2.523908A66.962888 66.962888 0 0 0 7.510502 783.723948c-0.490359 7.571724-0.173068 11.119618-0.274025 16.672215v32.075267a16.787595 16.787595 0 0 0 33.589612 0v-32.075267c0.043267-4.643991-0.115379-11.307108 0.144223-13.903128a33.387699 33.387699 0 0 1 33.445388-30.690722V957.224602h-33.604034c-0.086534 0.230757 0.072112-0.115379 0.028845 0a2.740243 2.740243 0 0 1-1.29801 0.230758 6.893875 6.893875 0 0 1-1.586456-0.201913c-0.62016-0.548049-1.29801-1.629724-2.062394-2.307573a16.729905 16.729905 0 0 0-23.724736 0 9.936987 9.936987 0 0 0-2.047971 2.653709c-0.605738 1.759525-0.951874 3.605583-1.009564 5.466064-0.115379 4.355544 1.081675 8.638977 3.46136 12.287827A33.690568 33.690568 0 0 0 40.826089 990.828636h38.248024a33.474233 33.474233 0 0 0 28.916776 16.787595h268.688047a33.632878 33.632878 0 0 0 33.604034-33.589612h33.575189a33.632878 33.632878 0 0 0 33.589611-33.589611v-151.14604a67.236912 67.236912 0 0 0-67.179223-67.164801H309.514135v-67.1648h50.377206a50.434895 50.434895 0 0 0 50.377206-50.377206V602.867903a83.966817 83.966817 0 0 0 0-164.529964v-1.701835a50.434895 50.434895 0 0 0-50.377206-50.377206h-83.966817l26.883227-20.16242a16.787595 16.787595 0 0 0 3.360403-23.508402l-21.921944-29.205222a52.454022 52.454022 0 1 0-26.984184 19.97493l11.956114 15.951099-49.266687 36.950015H124.792906a50.434895 50.434895 0 0 0-50.377206 50.377206v1.701835a83.966817 83.966817 0 0 0 0 164.529964v1.701835a50.434895 50.434895 0 0 0 50.377206 50.377206h50.377206v67.164801H91.203295z m134.344023-436.636104a16.787595 16.787595 0 1 1 33.589611 0 16.787595 16.787595 0 0 1-33.589611 0z m-50.377206 688.522133v-151.14604h134.344023v151.14604h-134.344023z m268.688047-184.721229v151.14604h-33.575189V755.715779a33.632878 33.632878 0 0 1 33.575189 33.589611zM376.722203 957.123646l-0.014422 0.115379 0.014422 0.115378v16.672216h-33.604034v-151.14604a33.632878 33.632878 0 0 0-33.589611-33.575189h-134.344024a33.632878 33.632878 0 0 0-33.589611 33.589611v151.146041H107.990889V755.701356h268.688047l0.028845 201.407868z m67.150378-436.506303a50.478162 50.478162 0 0 1-33.575189 47.507162v-95.014323a50.478162 50.478162 0 0 1 33.575189 47.507161z m-403.03207 0a50.478162 50.478162 0 0 1 33.589611-47.521584v95.028746a50.478162 50.478162 0 0 1-33.604033-47.507162z m67.164801 83.966818V436.650526c0.014422-9.27356 7.528457-16.787595 16.802016-16.802017h235.098436c9.27356 0.014422 16.787595 7.528457 16.802017 16.802017v167.933635c-0.014422 9.27356-7.528457 16.773172-16.802017 16.787594H124.792906a16.816439 16.816439 0 0 1-16.802017-16.787594z m100.768834 50.377206h67.1648v67.1648h-67.1648v-67.1648z" fill="#35A2FF" p-id="1258"></path><path d="M175.170112 520.617343a16.787595 16.787595 0 0 0 16.802017-16.802016v-33.589612a16.787595 16.787595 0 0 0-33.604034 0v33.604034a16.787595 16.787595 0 0 0 16.802017 16.787594zM309.514135 520.617343a16.787595 16.787595 0 0 0 16.802017-16.802016v-33.589612a16.787595 16.787595 0 0 0-33.604034 0v33.604034a16.787595 16.787595 0 0 0 16.802017 16.787594zM14.620711 913.582626c0.937452 0.634583 1.961437 1.153787 3.02869 1.514344a10.600414 10.600414 0 0 0 3.02869 1.009564c1.11052 0.18749 2.235461 0.288447 3.345981 0.331713 4.456501-0.057689 8.711089-1.802792 11.927268-4.874748 6.345826-6.67754 6.345826-17.162575 0-23.840115a17.37891 17.37891 0 0 0-5.538175-3.533471c-2.019126-0.86534-4.182476-1.312432-6.389093-1.341277a17.681779 17.681779 0 0 0-11.912846 4.874748 17.018352 17.018352 0 0 0 0 23.840115l2.509485 2.019127zM477.44777 319.094097a216.796496 216.796496 0 0 0 87.687779 175.029422 70.957874 70.957874 0 0 1 29.854228 56.578809v23.3786a49.901269 49.901269 0 0 0-20.479712 80.880439 50.160871 50.160871 0 0 0 37.281728 83.966817h1.701836a83.966817 83.966817 0 0 0 164.529964 0h1.701835a50.160871 50.160871 0 0 0 37.281729-83.966817 49.901269 49.901269 0 0 0-20.479712-80.880439v-23.450712a69.731976 69.731976 0 0 1 29.248489-56.03076A218.397375 218.397375 0 0 0 704.974481 100.970747a218.253151 218.253151 0 0 0-227.541133 218.12335z m134.344023 285.490064h167.933635a16.787595 16.787595 0 0 1 0 33.575189H611.806216a16.787595 16.787595 0 0 1 0-33.575189z m83.966818 167.933635a50.290672 50.290672 0 0 1-47.276405-33.604034h94.567232a50.290672 50.290672 0 0 1-47.290827 33.604034z m83.966817-67.179223H611.806216a16.787595 16.787595 0 0 1 0-33.589612h167.933634a16.787595 16.787595 0 0 1 0 33.589612zM703.604359 134.531514a184.807763 184.807763 0 0 1 102.138956 333.112604 102.975451 102.975451 0 0 0-42.805481 82.986098v20.364333h-134.344024v-20.292221a104.273461 104.273461 0 0 0-43.339108-83.462036 184.778919 184.778919 0 0 1 118.349657-332.708778zM712.560628 50.406051v-33.604034a16.787595 16.787595 0 0 0-33.604034 0v33.604034a16.787595 16.787595 0 0 0 33.604034 0zM897.627993 140.978296l23.753581-23.753581a16.787595 16.787595 0 0 0-23.753581-23.739158l-23.753581 23.739158a16.787595 16.787595 0 1 0 23.753581 23.753581zM493.889229 93.471134a16.787595 16.787595 0 0 0-23.739159 23.768003l23.753581 23.739159a16.787595 16.787595 0 0 0 23.739159-23.753581l-23.753581-23.739158zM998.036269 302.306503h-33.589612a16.787595 16.787595 0 0 0 0 33.575189h33.604034a16.787595 16.787595 0 0 0 0-33.575189zM427.070564 335.881692a16.787595 16.787595 0 0 0 0-33.575189h-33.589611a16.787595 16.787595 0 0 0 0 33.575189h33.589611z" fill="#35A2FF" p-id="1259"></path><path d="M571.019861 266.452585a16.802017 16.802017 0 0 0 22.960352-6.100646 118.075633 118.075633 0 0 1 101.778398-58.814271 16.787595 16.787595 0 0 0 0-33.589611 151.780623 151.780623 0 0 0-130.839397 75.544176 16.802017 16.802017 0 0 0 6.100647 22.960352zM545.795202 337.97293a16.787595 16.787595 0 1 0 33.315587-4.182476 118.969817 118.969817 0 0 1-0.894185-14.696357 16.787595 16.787595 0 0 0-33.604033 0c0 6.316981 0.403825 12.619541 1.182631 18.878833z" fill="#35A2FF" p-id="1260"></path></svg>